<svg width="78" height="13" viewBox="0 0 78 13" fill="none" xmlns="http://www.w3.org/2000/svg">
<path d="M7.8 0.25L9.55121 4.56864H15.2182L10.6335 7.23771L12.3847 11.5564L7.8 8.88729L3.21527 11.5564L4.96648 7.23771L0.381759 4.56864H6.04879L7.8 0.25Z" fill="#FF9D00"/>
<path d="M39 0.25L40.7512 4.56864H46.4182L41.8335 7.23771L43.5847 11.5564L39 8.88729L34.4152 11.5564L36.1664 7.23771L31.5817 4.56864H37.2487L39 0.25Z" fill="#FF9D00"/>
<path d="M23.4 0.25L25.1512 4.56864H30.8182L26.2335 7.23771L27.9847 11.5564L23.4 8.88729L18.8153 11.5564L20.5665 7.23771L15.9817 4.56864H21.6488L23.4 0.25Z" fill="#FF9D00"/>
<path d="M54.6 0.25L56.3513 4.56864H62.0183L57.4336 7.23771L59.1848 11.5564L54.6 8.88729L50.0153 11.5564L51.7665 7.23771L47.1818 4.56864H52.8488L54.6 0.25Z" fill="#FF9D00"/>
<path d="M70.2 0.25L71.9512 4.56864H77.6183L73.0335 7.23771L74.7847 11.5564L70.2 8.88729L65.6153 11.5564L67.3665 7.23771L62.7818 4.56864H68.4488L70.2 0.25Z" fill="#FF9D00"/>
</svg>
