<svg width="24" height="25" viewBox="0 0 24 25" fill="none" xmlns="http://www.w3.org/2000/svg">
<path d="M6 14.125C6 14.9917 6.175 15.8125 6.525 16.5875C6.875 17.3625 7.375 18.0417 8.025 18.625C8.00833 18.5417 8 18.4667 8 18.4V18.175C8 17.6417 8.1 17.1417 8.3 16.675C8.5 16.2083 8.79167 15.7833 9.175 15.4L12 12.625L14.825 15.4C15.2083 15.7833 15.5 16.2083 15.7 16.675C15.9 17.1417 16 17.6417 16 18.175V18.4C16 18.4667 15.9917 18.5417 15.975 18.625C16.625 18.0417 17.125 17.3625 17.475 16.5875C17.825 15.8125 18 14.9917 18 14.125C18 13.2917 17.8458 12.5042 17.5375 11.7625C17.2292 11.0208 16.7833 10.3583 16.2 9.775C15.8667 9.99167 15.5167 10.1542 15.15 10.2625C14.7833 10.3708 14.4083 10.425 14.025 10.425C12.9917 10.425 12.0958 10.0833 11.3375 9.4C10.5792 8.71667 10.1417 7.875 10.025 6.875C9.375 7.425 8.8 7.99583 8.3 8.5875C7.8 9.17917 7.37917 9.77917 7.0375 10.3875C6.69583 10.9958 6.4375 11.6167 6.2625 12.25C6.0875 12.8833 6 13.5083 6 14.125ZM12 15.425L10.575 16.825C10.3917 17.0083 10.25 17.2167 10.15 17.45C10.05 17.6833 10 17.925 10 18.175C10 18.7083 10.1958 19.1667 10.5875 19.55C10.9792 19.9333 11.45 20.125 12 20.125C12.55 20.125 13.0208 19.9333 13.4125 19.55C13.8042 19.1667 14 18.7083 14 18.175C14 17.9083 13.95 17.6625 13.85 17.4375C13.75 17.2125 13.6083 17.0083 13.425 16.825L12 15.425ZM12 3.125V6.425C12 6.99167 12.1958 7.46667 12.5875 7.85C12.9792 8.23333 13.4583 8.425 14.025 8.425C14.325 8.425 14.6042 8.3625 14.8625 8.2375C15.1208 8.1125 15.35 7.925 15.55 7.675L16 7.125C17.2333 7.825 18.2083 8.8 18.925 10.05C19.6417 11.3 20 12.6583 20 14.125C20 16.3583 19.225 18.25 17.675 19.8C16.125 21.35 14.2333 22.125 12 22.125C9.76667 22.125 7.875 21.35 6.325 19.8C4.775 18.25 4 16.3583 4 14.125C4 11.975 4.72083 9.93333 6.1625 8C7.60417 6.06667 9.55 4.44167 12 3.125Z" fill="black"/>
</svg>
