<svg width="250" height="284" viewBox="0 0 250 284" fill="none" xmlns="http://www.w3.org/2000/svg">
<g clip-path="url(#clip0_58_2)">
<path d="M160.726 210.265C161.287 210.565 161.927 210.685 162.559 210.609C163.19 210.533 163.783 210.265 164.257 209.84C164.731 209.416 165.064 208.855 165.209 208.235C165.354 207.615 165.306 206.966 165.07 206.374C165.133 206.06 165.179 205.834 165.242 205.519C166.456 204.385 167.98 203.64 169.62 203.379C171.259 203.118 172.94 203.352 174.445 204.053C175.951 204.754 177.213 205.889 178.069 207.313C178.926 208.736 179.339 210.384 179.254 212.043C178.87 221.404 179.332 231.504 173.116 239.051C201.485 215.847 214.42 176.318 205.757 140.766C201.506 134.837 199.523 126.96 201.429 119.823C203.821 122.151 208.485 121.526 207.772 117.494C207.39 115.901 206.994 114.312 206.612 112.719C222.951 106.337 227.217 130.655 207.862 140.556C209.432 147.316 210.292 154.22 210.428 161.159C212.613 154.903 216.251 149.255 221.042 144.681C225.68 140.5 231.814 138.042 237.52 135.238C244.463 131.816 252.169 138.599 249.435 145.841C244.813 145.25 241.542 150.779 245.737 153.751C238.37 166.135 224.244 174.006 209.892 174.131C208.441 188.262 203.997 201.921 196.857 214.198C206.026 200.243 223.769 204.261 237.791 203.666C238.721 203.549 239.665 203.705 240.508 204.116C241.352 204.526 242.057 205.174 242.539 205.979C243.021 206.784 243.258 207.712 243.222 208.65C243.186 209.588 242.878 210.495 242.336 211.261C240.491 211.152 238.64 211.228 236.811 211.486C235.95 211.613 235.15 212.004 234.52 212.605C233.89 213.206 233.461 213.987 233.292 214.841C233.123 215.695 233.222 216.581 233.575 217.376C233.929 218.172 234.52 218.839 235.266 219.285C222.966 230.572 203.906 232.999 188.947 225.796C184.524 231.373 179.534 236.474 174.058 241.018L151.818 230.406C151.856 230.121 151.906 229.831 151.952 229.55C153.949 230.661 156.075 231.524 158.281 232.119C155.908 223.066 153.265 217.763 160.725 210.265H160.726Z" fill="#F2F2F2"/>
<path d="M121.428 188.849C121.022 189.339 120.474 189.692 119.861 189.86C119.247 190.028 118.597 190.003 117.998 189.789C117.399 189.575 116.88 189.181 116.512 188.662C116.144 188.143 115.944 187.523 115.939 186.886C115.762 186.618 115.635 186.426 115.458 186.159C113.906 185.567 112.214 185.452 110.597 185.829C108.98 186.207 107.512 187.059 106.382 188.276C105.252 189.494 104.511 191.021 104.254 192.663C103.997 194.305 104.235 195.986 104.939 197.492C108.822 206.016 112.201 215.545 120.801 220.187C85.7838 209.408 58.9082 177.683 53.5338 141.486C55.2365 134.39 54.1047 126.346 49.6494 120.456C48.3115 123.516 43.7569 124.697 42.8976 120.694C42.6512 119.074 42.419 117.454 42.1725 115.834C24.6352 116.092 29.8485 140.225 51.5047 142.087C52.5977 148.939 54.4034 155.659 56.8924 162.136C52.5113 157.167 47.0142 153.31 40.8533 150.882C34.9821 148.762 28.3753 148.801 22.0339 148.358C14.314 147.811 9.73372 157.003 14.9947 162.678C19.0522 160.384 24.1651 164.271 21.4004 168.607C32.89 177.295 48.9384 179.251 62.2772 173.948C68.9465 186.487 78.2092 197.459 89.448 206.133C75.6983 196.671 60.7801 207.091 47.5699 211.834C46.664 212.077 45.8483 212.578 45.2221 213.277C44.596 213.976 44.1865 214.841 44.0436 215.769C43.9008 216.697 44.0307 217.646 44.4176 218.501C44.8045 219.356 45.4316 220.08 46.2224 220.584C47.8899 219.787 49.6324 219.158 51.4242 218.706C52.2693 218.499 53.1577 218.559 53.9674 218.878C54.7772 219.196 55.4687 219.758 55.9473 220.485C56.4258 221.212 56.6679 222.07 56.6404 222.94C56.6128 223.811 56.317 224.651 55.7935 225.347C71.4387 231.156 90.0051 226.207 101.145 213.888C107.342 217.383 113.886 220.223 120.67 222.364L137.268 204.139C137.125 203.889 136.97 203.64 136.821 203.397C135.391 205.18 133.748 206.782 131.928 208.165C130.714 198.885 131.164 192.976 121.429 188.849L121.428 188.849Z" fill="#F2F2F2"/>
<path d="M125.7 111.842C126.333 111.778 126.931 111.52 127.413 111.105C127.895 110.689 128.238 110.135 128.395 109.518C128.552 108.901 128.516 108.251 128.291 107.655C128.066 107.059 127.664 106.547 127.139 106.188C127.016 105.891 126.928 105.679 126.805 105.382C127.181 103.763 128.031 102.294 129.247 101.162C130.463 100.03 131.989 99.2872 133.629 99.029C135.269 98.7707 136.949 99.0085 138.453 99.7121C139.957 100.416 141.217 101.553 142.072 102.978C146.967 110.963 152.976 119.09 152.02 128.823C162.645 93.7288 151.365 53.6958 124.369 29.0171C117.538 26.4675 111.504 21.0355 109.111 14.0463C112.394 14.6445 115.917 11.5226 113.079 8.57351C111.875 7.46419 110.661 6.36629 109.456 5.25689C119.466 -9.15969 136.553 8.64706 126.001 27.6679C131.069 32.4027 135.629 37.6549 139.606 43.3388C137.935 36.926 137.809 30.2077 139.239 23.7366C140.761 17.6777 144.483 12.2141 147.658 6.7014C151.516 -0.0141393 161.691 1.31684 163.456 8.85443C159.289 10.9425 159.654 17.3584 164.791 17.4845C165.574 31.8763 158.232 46.2938 146.388 54.4071C153.054 66.9477 156.973 80.7664 157.885 94.9423C157.723 78.2414 174.69 71.6747 185.999 63.3558C186.706 62.7391 187.577 62.3417 188.505 62.212C189.434 62.0823 190.38 62.226 191.229 62.6255C192.078 63.025 192.792 63.663 193.284 64.4617C193.776 65.2605 194.026 66.1854 194.002 67.1237C192.411 68.0632 190.916 69.1586 189.541 70.3939C188.897 70.9801 188.451 71.7512 188.263 72.6014C188.074 73.4516 188.153 74.3393 188.489 75.1428C188.824 75.9463 189.4 76.6263 190.136 77.0896C190.873 77.5529 191.735 77.7767 192.604 77.7305C188.68 93.965 174.209 106.616 157.779 108.986C157.213 116.083 155.912 123.102 153.897 129.931L129.524 133.533C129.397 133.275 129.277 133.007 129.158 132.747C131.435 132.556 133.68 132.086 135.843 131.348C128.831 125.157 123.682 122.231 125.699 111.842L125.7 111.842Z" fill="#F2F2F2"/>
<path d="M150.213 104.019C139.117 104.019 133.099 102.662 130.997 99.765C129.142 97.2088 130.385 93.836 131.825 89.9309C132.86 87.1239 134.033 83.9426 134.033 80.7939C134.033 65.4796 141.79 57.7144 157.09 57.7144C164.703 57.7144 172.876 61.762 178.954 68.542C184.48 74.7057 187.233 82.0825 186.507 88.7809C185.911 94.2743 183.357 97.887 178.468 100.151L178.182 100.283L178.1 99.9784C177.678 98.4017 176.964 96.9186 175.994 95.6062C175.899 97.6663 175.381 99.6846 174.47 101.534L174.418 101.64L174.305 101.672C168.771 103.25 162.204 103.677 157.1 103.873C154.616 103.97 152.321 104.019 150.213 104.019Z" fill="#2F2E41"/>
<path d="M153.237 125.357C152.812 124.105 152.095 122.974 151.145 122.055C150.195 121.137 149.04 120.459 147.776 120.077C146.512 119.695 145.175 119.62 143.876 119.859C142.578 120.097 141.354 120.643 140.308 121.449L103.81 143.291L92.3892 115.398C93.354 113.981 93.8457 112.295 93.7939 110.581C93.7421 108.867 93.1495 107.214 92.1009 105.858C91.0523 104.502 89.6017 103.514 87.9571 103.034C86.3126 102.555 84.5585 102.609 82.9466 103.189C81.3346 103.769 79.9476 104.845 78.9844 106.263C78.0212 107.681 77.5313 109.367 77.585 111.081C77.6388 112.795 78.2333 114.447 79.2834 115.802C80.3335 117.156 81.7852 118.143 83.4304 118.621C84.1343 126.665 88.0463 162.616 101.656 161.309C113.095 160.211 141.503 141.273 150.327 134.707C151.738 133.658 152.781 132.187 153.304 130.507C153.827 128.826 153.804 127.023 153.237 125.357Z" fill="#FFB6B6"/>
<path d="M180.741 284H148.975L143.648 257.636L141.92 284H112.411C112.423 263.296 113.5 242.607 115.639 222.014L116.005 220.767L116.583 218.772L116.949 217.52L123.055 196.531L123.537 194.865H160.308C162.424 196.855 164.375 199.012 166.144 201.317C166.743 202.081 167.368 202.909 168.009 203.8C168.455 204.431 168.916 205.094 169.377 205.79C173.474 211.895 176.537 218.635 178.441 225.739V225.744C178.764 226.959 179.051 228.202 179.3 229.474V229.479C179.522 230.609 179.718 231.755 179.872 232.928C179.989 233.782 180.09 234.647 180.164 235.522C180.606 240.372 180.451 245.258 179.702 250.07L180.741 284Z" fill="#2F2E41"/>
<path d="M12.3153 42.9336C14.3783 42.1343 15.6003 40.3218 15.0448 38.8853C14.4892 37.4488 12.3665 36.9323 10.3035 37.7316C8.2405 38.531 7.01847 40.3435 7.574 41.78C8.12954 43.2164 10.2523 43.733 12.3153 42.9336Z" fill="#E6E6E6"/>
<path d="M38.2901 39.5984C40.3531 38.7991 41.5752 36.9866 41.0196 35.5501C40.4641 34.1136 38.3413 33.5971 36.2783 34.3964C34.2153 35.1958 32.9933 37.0083 33.5489 38.4447C34.1044 39.8812 36.2271 40.3977 38.2901 39.5984Z" fill="#3F3D56"/>
<path d="M10.0626 65.1155C12.1256 64.3162 13.3476 62.5037 12.7921 61.0672C12.2366 59.6307 10.1138 59.1142 8.05082 59.9135C5.98782 60.7129 4.76578 62.5254 5.32132 63.9619C5.87686 65.3984 7.9996 65.9149 10.0626 65.1155Z" fill="#FF6584"/>
<path d="M2.54826 74.9001C3.4947 74.6758 4.0009 73.3901 3.67888 72.0283C3.35686 70.6665 2.32856 69.7444 1.38213 69.9686C0.435692 70.1928 -0.070494 71.4785 0.251525 72.8403C0.573544 74.2021 1.60183 75.1243 2.54826 74.9001Z" fill="#E6E6E6"/>
<path d="M2.39372 91.4657C3.34016 91.2414 3.84634 89.9557 3.52432 88.5939C3.2023 87.2321 2.17402 86.3099 1.22759 86.5342C0.281151 86.7584 -0.225035 88.0441 0.096984 89.4059C0.419003 90.7677 1.44729 91.6899 2.39372 91.4657Z" fill="#3F3D56"/>
<path d="M25.1911 57.1545C26.1375 56.9303 26.6437 55.6445 26.3217 54.2827C25.9997 52.9209 24.9714 51.9988 24.0249 52.223C23.0785 52.4472 22.5723 53.7329 22.8943 55.0947C23.2164 56.4565 24.2446 57.3787 25.1911 57.1545Z" fill="#E6E6E6"/>
<path d="M11.5109 53.8292C12.4573 53.605 12.9635 52.3193 12.6415 50.9575C12.3195 49.5957 11.2912 48.6735 10.3448 48.8977C9.39834 49.122 8.89215 50.4077 9.21417 51.7695C9.53619 53.1313 10.5645 54.0535 11.5109 53.8292Z" fill="#FF6584"/>
<path d="M26.0109 38.5751C26.9573 38.3509 27.4635 37.0652 27.1415 35.7034C26.8195 34.3416 25.7912 33.4194 24.8448 33.6436C23.8983 33.8679 23.3922 35.1536 23.7142 36.5154C24.0362 37.8772 25.0645 38.7993 26.0109 38.5751Z" fill="#3F3D56"/>
<path d="M32.7545 153.229C33.752 152.056 33.195 149.941 31.5105 148.506C29.826 147.071 27.6517 146.858 26.6543 148.031C25.6568 149.204 26.2137 151.319 27.8983 152.754C29.5828 154.189 31.757 154.402 32.7545 153.229Z" fill="#E6E6E6"/>
<path d="M17.4566 131.954C18.4541 130.781 17.8972 128.666 16.2126 127.231C14.5281 125.796 12.3539 125.583 11.3564 126.756C10.3589 127.929 10.9159 130.044 12.6004 131.479C14.285 132.914 16.4592 133.127 17.4566 131.954Z" fill="#3F3D56"/>
<path d="M53.3148 144.65C54.3123 143.477 53.7553 141.362 52.0708 139.927C50.3863 138.492 48.212 138.279 47.2146 139.452C46.2171 140.625 46.774 142.74 48.4586 144.175C50.1431 145.61 52.3173 145.823 53.3148 144.65Z" fill="#FF6584"/>
<path d="M63.5286 144.885C64.5716 143.953 64.8922 142.609 64.2445 141.882C63.5969 141.156 62.2263 141.323 61.1833 142.254C60.1402 143.186 59.8197 144.531 60.4673 145.257C61.1149 145.983 62.4855 145.816 63.5286 144.885Z" fill="#E6E6E6"/>
<path d="M78.1558 137.133C79.1988 136.201 79.5194 134.857 78.8717 134.131C78.2241 133.404 76.8535 133.571 75.8105 134.503C74.7674 135.435 74.4469 136.779 75.0945 137.505C75.7421 138.232 77.1127 138.065 78.1558 137.133Z" fill="#3F3D56"/>
<path d="M37.1572 133.404C38.2003 132.472 38.5208 131.128 37.8732 130.402C37.2256 129.675 35.855 129.842 34.812 130.774C33.7689 131.706 33.4483 133.05 34.096 133.776C34.7436 134.502 36.1142 134.336 37.1572 133.404Z" fill="#E6E6E6"/>
<path d="M40.7498 147.029C41.7928 146.097 42.1134 144.753 41.4657 144.026C40.8181 143.3 39.4475 143.467 38.4045 144.398C37.3614 145.33 37.0409 146.675 37.6885 147.401C38.3361 148.127 39.7067 147.96 40.7498 147.029Z" fill="#FF6584"/>
<path d="M20.4443 141.529C21.4874 140.597 21.8079 139.253 21.1603 138.526C20.5127 137.8 19.1421 137.967 18.0991 138.899C17.056 139.831 16.7355 141.175 17.3831 141.901C18.0307 142.627 19.4013 142.461 20.4443 141.529Z" fill="#3F3D56"/>
<path d="M135.526 16.778C136.907 16.0982 137.235 13.9364 136.259 11.9494C135.282 9.96241 133.372 8.90273 131.991 9.58252C130.61 10.2623 130.282 12.4241 131.258 14.4111C132.234 16.3981 134.145 17.4578 135.526 16.778Z" fill="#E6E6E6"/>
<path d="M141.121 42.3853C142.502 41.7055 142.83 39.5437 141.854 37.5567C140.878 35.5697 138.967 34.51 137.586 35.1898C136.205 35.8696 135.877 38.0314 136.853 40.0184C137.829 42.0054 139.74 43.0651 141.121 42.3853Z" fill="#3F3D56"/>
<path d="M113.253 16.4754C114.634 15.7956 114.962 13.6338 113.986 11.6468C113.01 9.65981 111.099 8.60011 109.718 9.2799C108.337 9.95969 108.009 12.1215 108.985 14.1085C109.961 16.0955 111.872 17.1552 113.253 16.4754Z" fill="#FF6584"/>
<path d="M101.546 8.34898C102.873 7.90858 103.701 6.80248 103.395 5.87844C103.088 4.9544 101.765 4.56231 100.438 5.00272C99.1105 5.44312 98.2828 6.54923 98.5889 7.47328C98.8949 8.39732 100.219 8.78939 101.546 8.34898Z" fill="#E6E6E6"/>
<path d="M85.0461 9.64632C86.3732 9.20591 87.2009 8.09981 86.8948 7.17577C86.5887 6.25172 85.2648 5.85966 83.9377 6.30006C82.6107 6.74046 81.783 7.84656 82.0891 8.7706C82.3952 9.69465 83.7191 10.0867 85.0461 9.64632Z" fill="#3F3D56"/>
<path d="M121.19 29.3713C122.518 28.9309 123.345 27.8248 123.039 26.9007C122.733 25.9767 121.409 25.5846 120.082 26.025C118.755 26.4654 117.927 27.5715 118.233 28.4956C118.539 29.4196 119.863 29.8117 121.19 29.3713Z" fill="#E6E6E6"/>
<path d="M123.301 15.4393C124.628 14.9989 125.456 13.8928 125.15 12.9688C124.844 12.0447 123.52 11.6527 122.193 12.0931C120.866 12.5335 120.038 13.6396 120.344 14.5636C120.65 15.4877 121.974 15.8797 123.301 15.4393Z" fill="#FF6584"/>
<path d="M139.753 28.5609C141.08 28.1205 141.907 27.0144 141.601 26.0903C141.295 25.1663 139.971 24.7742 138.644 25.2146C137.317 25.655 136.49 26.7611 136.796 27.6852C137.102 28.6092 138.426 29.0013 139.753 28.5609Z" fill="#3F3D56"/>
<path d="M144.847 108.283L162.347 107.38L170.476 120.237C170.476 120.237 185.77 122.796 184.709 140.835C183.649 158.874 166.101 174.704 166.101 174.704L166.851 184.098L165.549 187.824L165.716 189.916L167.493 192.132L167.676 194.423L166.101 198.049L168.243 201.52L123.222 197.154L121.576 191.151L123.978 187.928L122.636 183.723L124.653 179.679L125.705 166.834C125.705 166.834 114.2 149.534 127.407 136.503L132.707 127.484L138.638 120.241L144.847 108.283Z" fill="#6C63FF"/>
<path d="M153.547 104.653C163.788 104.653 172.09 96.3424 172.09 86.0912C172.09 75.84 163.788 67.5298 153.547 67.5298C143.305 67.5298 135.003 75.84 135.003 86.0912C135.003 96.3424 143.305 104.653 153.547 104.653Z" fill="#FFB6B6"/>
<path d="M151.064 84.9662C149.466 84.9662 147.869 84.9211 146.273 84.8309L145.987 84.8149L146.025 84.5315C146.26 82.7597 146.128 80.9585 145.636 79.2403C144.801 81.1967 143.559 82.9525 141.993 84.3905L141.905 84.4716L141.785 84.4586C137.45 83.984 133.155 83.1998 128.931 82.112L128.769 82.0706L128.737 81.9069C128.422 80.3564 128.258 78.7788 128.25 77.1966C128.25 72.2539 130.04 68.0938 133.291 65.4827C136.829 62.6405 141.901 61.7664 147.578 63.02H165.73C167.726 63.0223 169.639 63.8168 171.05 65.2292C172.461 66.6416 173.255 68.5567 173.257 70.5541V82.06L173.059 82.1118C165.879 84.0005 158.487 84.9597 151.064 84.9662Z" fill="#2F2E41"/>
<path d="M24.5314 64.3198C23.7188 64.6173 23.0573 65.2252 22.692 66.0103C22.3267 66.7954 22.2874 67.6934 22.5827 68.5075L42.1649 122.29C42.4621 123.104 43.0694 123.766 43.8538 124.131C44.6381 124.497 45.5353 124.536 46.3485 124.241L122.35 96.5161C123.163 96.2186 123.824 95.6107 124.19 94.8256C124.555 94.0405 124.594 93.1425 124.299 92.3284L104.717 38.5458C104.42 37.7324 103.812 37.0702 103.028 36.7045C102.244 36.3388 101.346 36.2995 100.533 36.5951L24.5314 64.3198Z" fill="#CCCCCC"/>
<path d="M94.0641 103.87L47.5432 120.84C46.6679 121.158 45.7023 121.116 44.8581 120.722C44.014 120.329 43.3603 119.616 43.0405 118.741L25.2796 69.9601C24.9617 69.084 25.004 68.1174 25.3972 67.2725C25.7904 66.4275 26.5023 65.7732 27.3769 65.453L99.084 39.295C99.9593 38.9768 100.925 39.0191 101.769 39.4127C102.613 39.8063 103.267 40.519 103.587 41.3944L112.169 64.9646C114.913 72.5273 114.547 80.8707 111.153 88.1643C107.759 95.4578 101.613 101.106 94.0641 103.87Z" fill="white"/>
<path d="M60.5897 68.6298L49.5347 72.6626C49.3961 72.7131 49.2489 72.7359 49.1014 72.7295C48.954 72.7231 48.8093 72.6877 48.6755 72.6254C48.5418 72.563 48.4216 72.4749 48.3219 72.366C48.2222 72.2572 48.1448 72.1297 48.0943 71.991C48.0438 71.8522 48.021 71.7048 48.0274 71.5573C48.0338 71.4097 48.0691 71.2649 48.1314 71.131C48.1937 70.9971 48.2818 70.8768 48.3905 70.777C48.4993 70.6771 48.6266 70.5997 48.7652 70.5492L59.8202 66.5164C60.1002 66.4143 60.4092 66.4277 60.6794 66.5536C60.9495 66.6796 61.1586 66.9077 61.2606 67.188C61.3627 67.4683 61.3493 67.7776 61.2235 68.048C61.0976 68.3184 60.8697 68.5277 60.5897 68.6298Z" fill="#6C63FF"/>
<path d="M86.945 63.9117L51.1085 76.9845C50.9698 77.0353 50.8225 77.0582 50.675 77.052C50.5275 77.0457 50.3826 77.0104 50.2487 76.9481C50.1148 76.8858 49.9945 76.7976 49.8946 76.6887C49.7948 76.5798 49.7174 76.4523 49.6668 76.3134C49.6162 76.1745 49.5935 76.027 49.5999 75.8794C49.6064 75.7317 49.6418 75.5867 49.7042 75.4528C49.7667 75.3188 49.8549 75.1985 49.9638 75.0987C50.0727 74.9989 50.2002 74.9215 50.339 74.8711L86.1755 61.7983C86.3142 61.7477 86.4614 61.725 86.6088 61.7314C86.7562 61.7377 86.9009 61.7731 87.0347 61.8355C87.1685 61.8979 87.2886 61.986 87.3884 62.0948C87.4881 62.2037 87.5655 62.3311 87.616 62.4699C87.6665 62.6087 87.6892 62.756 87.6828 62.9036C87.6765 63.0512 87.6411 63.196 87.5788 63.3299C87.5165 63.4638 87.4285 63.5841 87.3197 63.6839C87.211 63.7837 87.0837 63.8611 86.945 63.9117Z" fill="#6C63FF"/>
<path d="M88.7511 68.8727L52.9146 81.9455C52.776 81.9961 52.6288 82.0189 52.4813 82.0125C52.3339 82.0061 52.1892 81.9707 52.0554 81.9083C51.9217 81.846 51.8015 81.7579 51.7018 81.649C51.602 81.5402 51.5247 81.4127 51.4742 81.2739C51.4236 81.1352 51.4009 80.9878 51.4073 80.8402C51.4137 80.6927 51.449 80.5478 51.5113 80.4139C51.5736 80.2801 51.6617 80.1598 51.7704 80.0599C51.8792 79.9601 52.0065 79.8827 52.1451 79.8321L87.9816 66.7593C88.2615 66.6576 88.5703 66.6713 88.8401 66.7973C89.11 66.9233 89.3188 67.1513 89.4208 67.4314C89.5227 67.7114 89.5095 68.0205 89.3839 68.2908C89.2584 68.561 89.0307 68.7703 88.7511 68.8727Z" fill="#6C63FF"/>
<path d="M90.5576 73.8337L54.7211 86.9066C54.5824 86.9573 54.4351 86.9803 54.2875 86.974C54.14 86.9678 53.9951 86.9325 53.8612 86.8701C53.7273 86.8078 53.607 86.7197 53.5072 86.6108C53.4073 86.5019 53.3299 86.3743 53.2793 86.2354C53.2288 86.0965 53.2061 85.9491 53.2125 85.8014C53.2189 85.6537 53.2544 85.5088 53.3168 85.3748C53.3792 85.2409 53.4674 85.1205 53.5764 85.0207C53.6853 84.9209 53.8128 84.8436 53.9516 84.7931L89.7881 71.7203C89.9267 71.6698 90.0739 71.647 90.2214 71.6534C90.3688 71.6598 90.5135 71.6952 90.6473 71.7575C90.781 71.8199 90.9012 71.908 91.0009 72.0169C91.1007 72.1257 91.178 72.2532 91.2285 72.3919C91.2791 72.5307 91.3018 72.6781 91.2954 72.8256C91.289 72.9732 91.2537 73.1181 91.1914 73.2519C91.1291 73.3858 91.041 73.5061 90.9323 73.6059C90.8235 73.7058 90.6962 73.7832 90.5576 73.8337Z" fill="#6C63FF"/>
<path d="M92.3639 78.7948L56.5274 91.8676C56.2474 91.9697 55.9384 91.9563 55.6682 91.8304C55.3981 91.7044 55.189 91.4762 55.087 91.196C54.9849 90.9157 54.9983 90.6064 55.1241 90.336C55.25 90.0656 55.4779 89.8563 55.7579 89.7542L91.5944 76.6814C91.7331 76.6308 91.8803 76.608 92.0277 76.6144C92.1751 76.6208 92.3198 76.6562 92.4536 76.7186C92.5874 76.7809 92.7075 76.869 92.8073 76.9779C92.907 77.0867 92.9843 77.2142 93.0349 77.353C93.0854 77.4917 93.1081 77.6391 93.1017 77.7867C93.0954 77.9342 93.06 78.0791 92.9977 78.213C92.9354 78.3468 92.8474 78.4671 92.7386 78.567C92.6299 78.6668 92.5026 78.7442 92.3639 78.7948Z" fill="#6C63FF"/>
<path d="M206.073 92.5726L186.452 139.57C185.615 141.559 184.031 143.138 182.04 143.968C180.05 144.797 177.813 144.81 175.814 144.003C174.779 143.586 173.84 142.963 173.055 142.17C172.269 141.378 171.652 140.434 171.243 139.396C170.833 138.357 170.64 137.246 170.673 136.13C170.707 135.014 170.967 133.917 171.438 132.905L193.314 84.7117L205.374 54.8667C204.332 53.8264 203.635 52.4902 203.378 51.0396C203.121 49.589 203.317 48.0944 203.938 46.7589C204.559 45.4233 205.576 44.3115 206.85 43.5746C208.125 42.8377 209.595 42.5113 211.061 42.6398C212.527 42.7684 213.918 43.3456 215.045 44.293C216.172 45.2405 216.981 46.5123 217.361 47.9356C217.74 49.3589 217.673 50.8647 217.168 52.2485C216.663 53.6323 215.745 54.8269 214.538 55.6701L206.073 92.5726Z" fill="#FFB6B6"/>
</g>
<defs>
<clipPath id="clip0_58_2">
<rect width="250" height="284" fill="white"/>
</clipPath>
</defs>
</svg>
